<svg width="16" height="17" viewBox="0 0 16 17" fill="none" xmlns="http://www.w3.org/2000/svg">
<path d="M1.99976 4.95996C1.99976 3.57925 3.11904 2.45996 4.49976 2.45996H11.4998C12.8805 2.45996 13.9998 3.57925 13.9998 4.95996V11.96C13.9998 13.3407 12.8805 14.46 11.4998 14.46H4.49976C3.11904 14.46 1.99976 13.3407 1.99976 11.96V4.95996ZM4.49976 3.45996C3.67133 3.45996 2.99976 4.13153 2.99976 4.95996V11.96C2.99976 12.7884 3.67133 13.46 4.49976 13.46H11.4998C12.3282 13.46 12.9998 12.7884 12.9998 11.96V4.95996C12.9998 4.13153 12.3282 3.45996 11.4998 3.45996H4.49976ZM7.99976 4.95996C8.2759 4.95996 8.49976 5.18382 8.49976 5.45996V7.95996H10.9998C11.2759 7.95996 11.4998 8.18382 11.4998 8.45996C11.4998 8.7361 11.2759 8.95996 10.9998 8.95996H8.49976V11.46C8.49976 11.7361 8.2759 11.96 7.99976 11.96C7.72361 11.96 7.49976 11.7361 7.49976 11.46V8.95996H4.99976C4.72361 8.95996 4.49976 8.7361 4.49976 8.45996C4.49976 8.18382 4.72361 7.95996 4.99976 7.95996H7.49976V5.45996C7.49976 5.18382 7.72361 4.95996 7.99976 4.95996Z" fill="#303135"/>
</svg>
