<svg width="23" height="27" viewBox="0 0 23 27" fill="none" xmlns="http://www.w3.org/2000/svg">
<path d="M6.16829 25.9394C5.65567 25.5984 5.20135 25.177 4.82279 24.6914C4.40637 24.1902 4.02054 23.6644 3.66741 23.1168C2.83873 21.9028 2.18885 20.5759 1.73772 19.177C1.19579 17.552 0.93335 15.9944 0.93335 14.471C0.93335 12.7696 1.30141 11.2844 2.02129 10.0364C2.55492 9.0609 3.3395 8.24575 4.29385 7.67523C5.21872 7.10077 6.28142 6.7864 7.36997 6.76523C7.75104 6.76523 8.16135 6.82048 8.59685 6.92611C8.90966 7.01467 9.29072 7.15442 9.75629 7.32829C10.3486 7.55661 10.6744 7.69636 10.7849 7.73048C11.1318 7.85723 11.4235 7.91248 11.6527 7.91248C11.8265 7.91248 12.0719 7.85723 12.3506 7.77273C12.5074 7.71748 12.8032 7.61998 13.2265 7.43879C13.6457 7.28604 13.9756 7.15523 14.238 7.05773C14.6402 6.93911 15.0294 6.82942 15.3763 6.77417C15.7876 6.70933 16.205 6.69215 16.6203 6.72298C17.3398 6.77001 18.0486 6.92249 18.7238 7.17554C19.828 7.61998 20.721 8.31386 21.3856 9.30023C21.1047 9.47337 20.841 9.67308 20.5983 9.89661C20.0698 10.3651 19.6197 10.915 19.265 11.5257C18.8013 12.3602 18.5609 13.3002 18.567 14.2549C18.5841 15.4273 18.8847 16.46 19.477 17.3529C19.9125 18.0147 20.4784 18.5806 21.1402 19.0161C21.479 19.2444 21.7707 19.4012 22.0502 19.5069C21.9194 19.9131 21.7797 20.3064 21.6147 20.6964C21.2406 21.5709 20.7873 22.4094 20.2603 23.2013C19.7907 23.883 19.4226 24.3908 19.1431 24.7288C18.7076 25.2447 18.2883 25.6388 17.865 25.9134C17.3995 26.2222 16.8494 26.3871 16.2904 26.3871C15.9118 26.4016 15.5333 26.3558 15.1692 26.2514C14.8563 26.1458 14.5468 26.0312 14.2421 25.9004C13.9253 25.7549 13.5987 25.6319 13.2647 25.5324C12.4389 25.3203 11.5731 25.3189 10.7467 25.5283C10.4079 25.6258 10.0821 25.7395 9.76035 25.8793C9.30779 26.0694 9.00716 26.197 8.83329 26.2514C8.48635 26.353 8.12641 26.4164 7.76241 26.4375C7.19935 26.4375 6.67447 26.2766 6.15447 25.9508L6.16829 25.9394ZM13.5945 5.93973C12.8584 6.30779 12.1556 6.46461 11.4577 6.41342C11.348 5.71061 11.4577 4.99154 11.7493 4.20423C11.9977 3.53722 12.3646 2.92063 12.8324 2.38423C13.3264 1.81956 13.9259 1.35672 14.5972 1.02167C15.3122 0.653605 15.9938 0.454543 16.6455 0.425293C16.73 1.16142 16.6455 1.88536 16.3749 2.66779C16.1245 3.35946 15.7583 4.00348 15.2918 4.57229C14.8158 5.13774 14.2315 5.60237 13.5734 5.93892L13.5945 5.93973Z" fill="black"/>
</svg>
