<svg width="17" height="15" viewBox="0 0 17 15" fill="none" xmlns="http://www.w3.org/2000/svg">
<path d="M7.44585 14.08C7.64979 14.2662 7.96604 14.2518 8.15222 14.0478C8.3384 13.8439 8.32401 13.5276 8.12007 13.3415L1.95221 7.71074H15.783C16.0591 7.71074 16.283 7.48688 16.283 7.21074C16.283 6.9346 16.0591 6.71074 15.783 6.71074H1.9551L8.12007 1.08265C8.32401 0.896469 8.3384 0.580214 8.15222 0.376274C7.96604 0.172333 7.64979 0.157936 7.44585 0.344116L0.529497 6.65816C0.389548 6.78592 0.309719 6.95346 0.290008 7.1266C0.285373 7.15396 0.282959 7.18207 0.282959 7.21074C0.282959 7.23761 0.285079 7.26399 0.28916 7.28971C0.307334 7.46562 0.387447 7.63628 0.529497 7.76596L7.44585 14.08Z" fill="#303135"/>
</svg>
