<svg width="43" height="43" viewBox="0 0 43 43" fill="none" xmlns="http://www.w3.org/2000/svg">
<g clip-path="url(#clip0_553_11551)">
<path d="M26.1733 16.5393C26.6034 16.9695 26.6034 17.6669 26.1733 18.0971L23.0578 21.2126L26.1733 24.3281C26.6034 24.7582 26.6034 25.4557 26.1733 25.8858C25.7431 26.316 25.0457 26.316 24.6155 25.8858L21.5 22.7703L18.3845 25.8858C17.9543 26.316 17.2569 26.316 16.8267 25.8858C16.3966 25.4557 16.3966 24.7582 16.8267 24.3281L19.9422 21.2126L16.8267 18.0971C16.3966 17.6669 16.3966 16.9695 16.8267 16.5393C17.2569 16.1091 17.9543 16.1091 18.3845 16.5393L21.5 19.6548L24.6155 16.5393C25.0457 16.1091 25.7431 16.1091 26.1733 16.5393ZM12.1535 11.866C17.3154 6.70411 25.6846 6.70411 30.8465 11.866C36.0085 17.028 36.0085 25.3971 30.8465 30.5591C25.6846 35.721 17.3154 35.721 12.1535 30.5591C6.99154 25.3971 6.99154 17.028 12.1535 11.866ZM29.2888 13.4238C24.9871 9.12219 18.0129 9.12219 13.7112 13.4238C9.40962 17.7254 9.40962 24.6997 13.7112 29.0013C18.0129 33.3029 24.9871 33.3029 29.2888 29.0013C33.5904 24.6997 33.5904 17.7254 29.2888 13.4238Z" fill="#BEC1C3"/>
</g>
<defs>
<clipPath id="clip0_553_11551">
<rect width="30" height="30" fill="white" transform="translate(21.5) rotate(45)"/>
</clipPath>
</defs>
</svg>
