<svg width="17" height="17" viewBox="0 0 17 17" fill="none" xmlns="http://www.w3.org/2000/svg">
<path d="M7.21313 3.45996H9.21313C9.21313 2.90768 8.76542 2.45996 8.21313 2.45996C7.66085 2.45996 7.21313 2.90768 7.21313 3.45996ZM6.21313 3.45996C6.21313 2.35539 7.10857 1.45996 8.21313 1.45996C9.3177 1.45996 10.2131 2.35539 10.2131 3.45996H14.2131C14.4893 3.45996 14.7131 3.68382 14.7131 3.95996C14.7131 4.2361 14.4893 4.45996 14.2131 4.45996H13.6496L12.4444 13.2977C12.2755 14.5365 11.2175 15.46 9.96735 15.46H6.45892C5.20874 15.46 4.15076 14.5365 3.98184 13.2977L2.77669 4.45996H2.21313C1.93699 4.45996 1.71313 4.2361 1.71313 3.95996C1.71313 3.68382 1.93699 3.45996 2.21313 3.45996H6.21313ZM7.21313 6.95996C7.21313 6.68382 6.98928 6.45996 6.71313 6.45996C6.43699 6.45996 6.21313 6.68382 6.21313 6.95996V11.96C6.21313 12.2361 6.43699 12.46 6.71313 12.46C6.98928 12.46 7.21313 12.2361 7.21313 11.96V6.95996ZM9.71313 6.45996C9.98928 6.45996 10.2131 6.68382 10.2131 6.95996V11.96C10.2131 12.2361 9.98928 12.46 9.71313 12.46C9.43699 12.46 9.21313 12.2361 9.21313 11.96V6.95996C9.21313 6.68382 9.43699 6.45996 9.71313 6.45996ZM4.97267 13.1626C5.07402 13.9059 5.70881 14.46 6.45892 14.46H9.96735C10.7175 14.46 11.3522 13.9059 11.4536 13.1626L12.6403 4.45996H3.78594L4.97267 13.1626Z" fill="#303135"/>
</svg>
