<svg width="17" height="17" viewBox="0 0 17 17" fill="none" xmlns="http://www.w3.org/2000/svg">
<path d="M14.4491 2.22382C13.4254 1.20013 11.7657 1.20013 10.742 2.22382L2.87036 10.0954C2.49618 10.4696 2.22936 10.9374 2.09781 11.45L1.22884 14.8355C1.1849 15.0067 1.23461 15.1883 1.35959 15.3133C1.48457 15.4383 1.66625 15.488 1.83745 15.4441L5.22292 14.5751C5.73547 14.4435 6.20328 14.1767 6.57746 13.8026L14.4491 5.93093C15.4728 4.90724 15.4728 3.24751 14.4491 2.22382ZM11.4491 2.93093C12.0823 2.29776 13.1088 2.29776 13.742 2.93093C14.3751 3.56409 14.3751 4.59066 13.742 5.22382L12.9632 6.00265L10.6703 3.70975L11.4491 2.93093ZM9.96316 4.41686L12.2561 6.70975L5.87035 13.0954C5.62283 13.343 5.31336 13.5195 4.9743 13.6065L2.4076 14.2653L3.06641 11.6986C3.15344 11.3595 3.32994 11.0501 3.57746 10.8026L9.96316 4.41686Z" fill="#303135"/>
</svg>
