<svg width="45" height="45" viewBox="0 0 45 45" fill="none" xmlns="http://www.w3.org/2000/svg">
<circle cx="22.9084" cy="22.2595" r="22.05" fill="#B1CCFF"/>
<path d="M19.6401 13.6002C18.7123 13.6002 17.9601 14.3524 17.9601 15.2802V16.9602C17.9601 17.8881 18.7123 18.6402 19.6401 18.6402H26.3601C27.2879 18.6402 28.0401 17.8881 28.0401 16.9602V15.2802C28.0401 14.3524 27.2879 13.6002 26.3601 13.6002H19.6401ZM19.6401 15.2802H26.3601V16.9602H19.6401V15.2802Z" fill="white"/>
<path d="M28.0401 10.2402H17.9601C16.1044 10.2402 14.6001 11.7446 14.6001 13.6002V30.4002C14.6001 32.2559 16.1044 33.7602 17.9601 33.7602H30.5601C31.024 33.7602 31.4001 33.3842 31.4001 32.9202C31.4001 32.4563 31.024 32.0802 30.5601 32.0802H17.9601C17.0323 32.0802 16.2801 31.3281 16.2801 30.4002V30.3951H30.5601C31.024 30.3951 31.4001 30.019 31.4001 29.5551V13.6002C31.4001 11.7446 29.8958 10.2402 28.0401 10.2402ZM16.2801 28.7151V13.6002C16.2801 12.6724 17.0323 11.9202 17.9601 11.9202H28.0401C28.9679 11.9202 29.7201 12.6724 29.7201 13.6002V28.7151H16.2801Z" fill="white"/>
</svg>
