<svg width="75" height="75" viewBox="0 0 75 75" fill="none" xmlns="http://www.w3.org/2000/svg">
<path opacity="0.1" d="M72.069 37.5771C72.069 56.5736 56.6693 71.9733 37.6729 71.9733C18.6764 71.9733 3.27669 56.5736 3.27669 37.5771C3.27669 18.5807 18.6764 3.18099 37.6729 3.18099C56.6693 3.18099 72.069 18.5807 72.069 37.5771Z" stroke="white" stroke-width="4.91374"/>
<path d="M34.723 48.8673L34.6895 38.5535H30.3022V34.1333H34.6895V31.1865C34.6895 27.2095 37.134 25.2928 40.6553 25.2928C42.342 25.2928 43.7917 25.4194 44.2142 25.4759V29.6321L41.772 29.6332C39.8569 29.6332 39.4861 30.5501 39.4861 31.8955V34.1333H44.9265L43.464 38.5535H39.4861V48.8673H34.723Z" fill="#F5F8FA"/>
</svg>
