<svg width="27" height="27" viewBox="0 0 27 27" fill="none" xmlns="http://www.w3.org/2000/svg">
<path d="M6.9202 15.8918L6.09745 18.9633L3.09033 19.0269C2.19164 17.36 1.68188 15.4529 1.68188 13.4263C1.68188 11.4665 2.15849 9.61847 3.00331 7.99121H3.00395L5.68114 8.48203L6.85391 11.1432C6.60845 11.8588 6.47467 12.6269 6.47467 13.4263C6.47476 14.2938 6.6319 15.125 6.9202 15.8918Z" fill="#FBBB00"/>
<path d="M25.1119 11.2183C25.2476 11.9332 25.3184 12.6715 25.3184 13.426C25.3184 14.2722 25.2294 15.0975 25.0599 15.8936C24.4846 18.6027 22.9814 20.9683 20.8989 22.6423L20.8983 22.6416L17.5262 22.4696L17.049 19.4903C18.4308 18.68 19.5107 17.4118 20.0795 15.8936H13.76V11.2183H20.1717H25.1119Z" fill="#518EF8"/>
<path d="M20.8981 22.6416L20.8988 22.6422C18.8735 24.2701 16.3007 25.2442 13.5001 25.2442C8.99942 25.2442 5.08645 22.7286 3.09033 19.0267L6.92021 15.8916C7.91824 18.5552 10.4877 20.4513 13.5001 20.4513C14.7949 20.4513 16.0079 20.1013 17.0488 19.4903L20.8981 22.6416Z" fill="#28B446"/>
<path d="M21.0437 4.32868L17.2151 7.46308C16.1379 6.78972 14.8644 6.40074 13.5002 6.40074C10.4197 6.40074 7.80211 8.38384 6.85407 11.143L3.00406 7.99102H3.00342C4.97031 4.19882 8.93264 1.60791 13.5002 1.60791C16.3677 1.60791 18.9969 2.62935 21.0437 4.32868Z" fill="#F14336"/>
</svg>
