<svg width="75" height="75" viewBox="0 0 75 75" fill="none" xmlns="http://www.w3.org/2000/svg">
<path opacity="0.1" d="M71.7228 37.5771C71.7228 56.5736 56.3231 71.9733 37.3267 71.9733C18.3302 71.9733 2.9305 56.5736 2.9305 37.5771C2.9305 18.5807 18.3302 3.18099 37.3267 3.18099C56.3231 3.18099 71.7228 18.5807 71.7228 37.5771Z" stroke="white" stroke-width="4.91374"/>
<path d="M42.843 33.3879C43.5486 33.3879 44.1206 32.8159 44.1206 32.1103C44.1206 31.4048 43.5486 30.8328 42.843 30.8328C42.1374 30.8328 41.5654 31.4048 41.5654 32.1103C41.5654 32.8159 42.1374 33.3879 42.843 33.3879Z" fill="#F5F8FA"/>
<path fill-rule="evenodd" clip-rule="evenodd" d="M32.0034 37.5771C32.0034 40.5129 34.3909 42.9003 37.3266 42.9003C40.2624 42.9003 42.6498 40.5129 42.6498 37.5771C42.6498 34.6414 40.2624 32.2539 37.3266 32.2539C34.3909 32.2539 32.0034 34.6414 32.0034 37.5771ZM34.665 37.5771C34.665 36.1093 35.8588 34.9155 37.3266 34.9155C38.7945 34.9155 39.9882 36.1093 39.9882 37.5771C39.9882 39.045 38.7945 40.2388 37.3266 40.2388C35.8588 40.2388 34.665 39.045 34.665 37.5771Z" fill="#F5F8FA"/>
<path fill-rule="evenodd" clip-rule="evenodd" d="M32.0034 48.2235H42.6498C45.386 48.2235 47.973 45.6364 47.973 42.9003V32.2539C47.973 29.5177 45.386 26.9307 42.6498 26.9307H32.0034C29.2673 26.9307 26.6802 29.5177 26.6802 32.2539V42.9003C26.6802 45.6364 29.2673 48.2235 32.0034 48.2235ZM29.3418 32.2539C29.3418 31.0096 30.7591 29.5923 32.0034 29.5923H42.6498C43.8941 29.5923 45.3114 31.0096 45.3114 32.2539V42.9004C45.3114 44.1447 43.8941 45.562 42.6498 45.562H32.0034C30.7351 45.562 29.3418 44.1686 29.3418 42.9004V32.2539Z" fill="#F5F8FA"/>
</svg>
