<svg width="74" height="75" viewBox="0 0 74 75" fill="none" xmlns="http://www.w3.org/2000/svg">
<path opacity="0.1" d="M71.4152 37.5771C71.4152 56.5736 56.0155 71.9733 37.019 71.9733C18.0226 71.9733 2.62288 56.5736 2.62288 37.5771C2.62288 18.5807 18.0226 3.18099 37.019 3.18099C56.0155 3.18099 71.4152 18.5807 71.4152 37.5771Z" stroke="white" stroke-width="4.91374"/>
<path d="M29.1365 32.4586C30.663 32.4586 31.9005 31.2211 31.9005 29.6946C31.9005 28.1681 30.663 26.9307 29.1365 26.9307C27.61 26.9307 26.3726 28.1681 26.3726 29.6946C26.3726 31.2211 27.61 32.4586 29.1365 32.4586Z" fill="#F5F8FA"/>
<path d="M31.4398 34.3013H26.8332C26.5789 34.3013 26.3726 34.5076 26.3726 34.7619V48.5818C26.3726 48.8361 26.5789 49.0425 26.8332 49.0425H31.4398C31.6941 49.0425 31.9005 48.8361 31.9005 48.5818V34.7619C31.9005 34.5076 31.6941 34.3013 31.4398 34.3013Z" fill="#F5F8FA"/>
<path d="M45.1648 33.6666C43.196 32.9922 40.7333 33.5846 39.2564 34.6469C39.2057 34.4488 39.0251 34.3014 38.8105 34.3014H34.2038C33.9495 34.3014 33.7432 34.5078 33.7432 34.762V48.5819C33.7432 48.8362 33.9495 49.0426 34.2038 49.0426H38.8105C39.0647 49.0426 39.2711 48.8362 39.2711 48.5819V38.65C40.0155 38.0088 40.9746 37.8043 41.7596 38.1378C42.5206 38.4593 42.9564 39.2443 42.9564 40.29V48.5819C42.9564 48.8362 43.1628 49.0426 43.4171 49.0426H48.0237C48.278 49.0426 48.4844 48.8362 48.4844 48.5819V39.3622C48.4319 35.5765 46.6509 34.1752 45.1648 33.6666Z" fill="#F5F8FA"/>
</svg>
