<svg width="22" height="20" viewBox="0 0 22 20" fill="none" xmlns="http://www.w3.org/2000/svg">
<g clip-path="url(#clip0_6270_13105)">
<path d="M21.1468 9.49657C20.2886 7.76079 19.2673 6.34517 18.0829 5.2497L16.8407 6.4422C17.8536 7.3715 18.736 8.5872 19.4989 10.1013C17.4676 14.1372 14.5843 16.0544 10.6439 16.0544C9.46113 16.0544 8.37169 15.8795 7.3756 15.5299L6.02965 16.822C7.41312 17.4352 8.9512 17.7419 10.6439 17.7419C15.3363 17.7419 18.8373 15.3958 21.1468 10.7036C21.2397 10.5149 21.2878 10.3088 21.2878 10.1001C21.2878 9.89139 21.2397 9.68528 21.1468 9.49657ZM19.5948 1.98157L18.5541 0.981261C18.5359 0.963828 18.5144 0.949998 18.4907 0.940562C18.467 0.931126 18.4416 0.92627 18.4159 0.92627C18.3902 0.92627 18.3648 0.931126 18.3411 0.940562C18.3174 0.949998 18.2958 0.963828 18.2777 0.981261L15.6075 3.54345C14.1354 2.82157 12.4808 2.46064 10.6439 2.46064C5.95153 2.46064 2.45055 4.80673 0.14098 9.49892C0.0481461 9.68763 0 9.89374 0 10.1024C0 10.3111 0.0481461 10.5172 0.14098 10.7059C1.06367 12.5716 2.17451 14.067 3.4735 15.1921L0.890003 17.6716C0.853403 17.7067 0.832843 17.7544 0.832843 17.8041C0.832843 17.8538 0.853403 17.9015 0.890003 17.9367L1.93224 18.9372C1.96886 18.9723 2.01852 18.9921 2.0703 18.9921C2.12208 18.9921 2.17174 18.9723 2.20836 18.9372L19.5948 2.24689C19.613 2.22947 19.6274 2.20879 19.6372 2.18603C19.6471 2.16327 19.6521 2.13887 19.6521 2.11423C19.6521 2.08959 19.6471 2.06519 19.6372 2.04243C19.6274 2.01967 19.613 1.99899 19.5948 1.98157ZM1.78893 10.1013C3.82262 6.06532 6.70592 4.14814 10.6439 4.14814C11.9755 4.14814 13.1861 4.36751 14.2845 4.81353L12.5682 6.46118C11.7554 6.04485 10.8247 5.89033 9.91345 6.02043C9.00219 6.15053 8.15862 6.55835 7.50717 7.18374C6.85573 7.80913 6.43091 8.61896 6.29539 9.49377C6.15987 10.3686 6.32082 11.262 6.7545 12.0424L4.71788 13.9975C3.59069 13.0424 2.61901 11.7484 1.78893 10.1013ZM7.81188 10.1013C7.81231 9.68797 7.91428 9.28061 8.10951 8.91227C8.30475 8.54392 8.58773 8.22499 8.93549 7.98136C9.28325 7.73774 9.68596 7.5763 10.1109 7.51016C10.5359 7.44402 10.9711 7.47504 11.3812 7.60071L7.94152 10.9028C7.8553 10.6437 7.81157 10.3733 7.81188 10.1013Z" fill="#BEC1C3"/>
<path d="M11.5464 12.7263C11.4619 12.7263 11.3787 12.7225 11.2961 12.7152L10.0066 13.9532C10.7822 14.2384 11.6272 14.3017 12.4396 14.1356C13.2519 13.9696 13.9967 13.5812 14.584 13.0174C15.1713 12.4536 15.5759 11.7385 15.7489 10.9587C15.9219 10.1789 15.8559 9.36763 15.5588 8.62305L14.2693 9.86102C14.2769 9.94024 14.2808 10.0202 14.2808 10.1013C14.281 10.446 14.2104 10.7875 14.073 11.106C13.9357 11.4246 13.7343 11.714 13.4803 11.9578C13.2264 12.2016 12.9249 12.395 12.593 12.5268C12.2612 12.6587 11.9055 12.7264 11.5464 12.7263Z" fill="#BEC1C3"/>
</g>
<defs>
<clipPath id="clip0_6270_13105">
<rect width="22" height="19" fill="white" transform="translate(0 0.92627)"/>
</clipPath>
</defs>
</svg>
