<svg width="45" height="45" viewBox="0 0 45 45" fill="none" xmlns="http://www.w3.org/2000/svg">
<circle cx="22.9084" cy="22.3596" r="22.05" fill="#B1CCFF"/>
<g clip-path="url(#clip0_2567_19234)">
<path d="M16.2801 16.1204C16.2801 14.7287 17.4083 13.6004 18.8001 13.6004C20.1918 13.6004 21.3201 14.7287 21.3201 16.1204C21.3201 17.5122 20.1918 18.6404 18.8001 18.6404C17.4083 18.6404 16.2801 17.5122 16.2801 16.1204ZM18.8001 11.9204C16.4805 11.9204 14.6001 13.8008 14.6001 16.1204C14.6001 18.44 16.4805 20.3204 18.8001 20.3204C21.1197 20.3204 23.0001 18.44 23.0001 16.1204C23.0001 13.8008 21.1197 11.9204 18.8001 11.9204ZM27.2001 16.9604C27.2001 16.0326 27.9522 15.2804 28.8801 15.2804C29.8079 15.2804 30.5601 16.0326 30.5601 16.9604C30.5601 17.8882 29.8079 18.6404 28.8801 18.6404C27.9522 18.6404 27.2001 17.8882 27.2001 16.9604ZM26.2299 19.0261C27.0694 18.7752 27.959 18.6404 28.8801 18.6404C29.8012 18.6404 30.6908 18.7752 31.5303 19.0261C31.9751 18.4563 32.2401 17.7393 32.2401 16.9604C32.2401 15.1047 30.7358 13.6004 28.8801 13.6004C27.0244 13.6004 25.5201 15.1047 25.5201 16.9604C25.5201 17.7393 25.7851 18.4563 26.2299 19.0261ZM14.6001 22.0004H21.7521C21.326 22.5164 20.9549 23.0793 20.6476 23.6804H14.6001C14.1362 23.6804 13.7601 24.0565 13.7601 24.5204V24.6711L13.7605 24.6826C13.7613 24.6978 13.763 24.7259 13.7671 24.7648C13.7752 24.843 13.7924 24.9634 13.8283 25.1116C13.9005 25.4095 14.0454 25.8077 14.3344 26.2051C14.8821 26.9582 16.0749 27.8804 18.8001 27.8804C19.098 27.8804 19.3777 27.8694 19.6401 27.8488L19.6401 27.8804C19.6401 28.4407 19.69 28.9894 19.7855 29.5222C19.4734 29.5473 19.1451 29.5604 18.8001 29.5604C15.6452 29.5604 13.8981 28.4614 12.9757 27.1932C12.5298 26.58 12.3071 25.9676 12.1956 25.5075C12.1397 25.2768 12.1109 25.0813 12.0961 24.9384C12.0886 24.8668 12.0846 24.808 12.0825 24.764C12.0814 24.742 12.0808 24.7236 12.0805 24.7092L12.0802 24.6905L12.0801 24.6835L12.0801 24.6805L12.0801 24.6779V24.5204C12.0801 23.1287 13.2083 22.0004 14.6001 22.0004ZM21.3201 27.8804C21.3201 32.0557 24.7048 35.4404 28.8801 35.4404C33.0553 35.4404 36.4401 32.0557 36.4401 27.8804C36.4401 23.7051 33.0553 20.3204 28.8801 20.3204C24.7048 20.3204 21.3201 23.7051 21.3201 27.8804ZM32.2401 22.8404C32.704 22.8404 33.0801 23.2165 33.0801 23.6804V26.2004C33.0801 26.6643 32.704 27.0404 32.2401 27.0404H29.7201C29.2562 27.0404 28.8801 26.6643 28.8801 26.2004C28.8801 25.7365 29.2562 25.3604 29.7201 25.3604H30.5067C30.4221 25.3136 30.3354 25.2704 30.2468 25.231C29.8347 25.0475 29.3899 24.9488 28.9388 24.9409C28.4877 24.933 28.0397 25.0161 27.6214 25.185C27.2031 25.354 26.8231 25.6055 26.5041 25.9245C26.1761 26.2526 25.6442 26.2526 25.3162 25.9245C24.9882 25.5965 24.9882 25.0646 25.3162 24.7366C25.7947 24.2581 26.3647 23.8808 26.9921 23.6274C27.6195 23.3739 28.2916 23.2493 28.9682 23.2612C29.6448 23.273 30.3121 23.421 30.9303 23.6963C31.0912 23.768 31.2481 23.8479 31.4001 23.9357V23.6804C31.4001 23.2165 31.7762 22.8404 32.2401 22.8404ZM30.7681 32.1335C30.1406 32.3869 29.4686 32.5115 28.792 32.4996C28.1154 32.4878 27.4481 32.3398 26.8299 32.0645C26.6689 31.9929 26.5121 31.9129 26.3601 31.8251V32.0804C26.3601 32.5443 25.984 32.9204 25.5201 32.9204C25.0562 32.9204 24.6801 32.5443 24.6801 32.0804V29.5604C24.6801 29.0965 25.0562 28.7204 25.5201 28.7204H28.0401C28.504 28.7204 28.8801 29.0965 28.8801 29.5604C28.8801 30.0243 28.504 30.4004 28.0401 30.4004H27.2535C27.3381 30.4472 27.4247 30.4904 27.5133 30.5298C27.9254 30.7134 28.3703 30.812 28.8214 30.8199C29.2724 30.8278 29.7205 30.7448 30.1388 30.5758C30.557 30.4068 30.937 30.1553 31.256 29.8363C31.5841 29.5082 32.1159 29.5082 32.444 29.8363C32.772 30.1643 32.772 30.6962 32.444 31.0242C31.9655 31.5027 31.3955 31.88 30.7681 32.1335Z" fill="white"/>
</g>
<defs>
<clipPath id="clip0_2567_19234">
<rect width="26.88" height="26.88" fill="white" transform="translate(10 9)"/>
</clipPath>
</defs>
</svg>
