<svg width="45" height="45" viewBox="0 0 45 45" fill="none" xmlns="http://www.w3.org/2000/svg">
<circle cx="22.9084" cy="22.3098" r="22.05" fill="#B1CCFF"/>
<path d="M12.9204 25.3601C12.9204 28.3885 15.5323 31.4971 20.013 32.0073C19.534 31.4153 19.1268 30.7629 18.8044 30.0634C16.0819 29.2796 14.6004 27.2553 14.6004 25.3601V24.5201C14.6004 24.0562 14.9765 23.6801 15.4404 23.6801H18.3082C18.4739 23.0944 18.6959 22.5323 18.9679 22.0001H15.4404C14.0487 22.0001 12.9204 23.1283 12.9204 24.5201V25.3601ZM25.9404 15.7001C25.9404 16.1793 25.8674 16.6415 25.732 17.0761C24.9159 17.2064 24.1354 17.4436 23.4054 17.7729C23.9338 17.2414 24.2604 16.5089 24.2604 15.7001C24.2604 14.0764 22.9441 12.7601 21.3204 12.7601C19.6967 12.7601 18.3804 14.0764 18.3804 15.7001C18.3804 17.3238 19.6967 18.6401 21.3204 18.6401C21.5545 18.6401 21.7822 18.6127 22.0005 18.561C21.3279 19.0198 20.719 19.565 20.1898 20.1807C18.1848 19.6764 16.7004 17.8616 16.7004 15.7001C16.7004 13.1485 18.7689 11.0801 21.3204 11.0801C23.872 11.0801 25.9404 13.1485 25.9404 15.7001ZM34.7604 26.2001C34.7604 30.3753 31.3757 33.7601 27.2004 33.7601C23.0251 33.7601 19.6404 30.3753 19.6404 26.2001C19.6404 22.0248 23.0251 18.6401 27.2004 18.6401C31.3757 18.6401 34.7604 22.0248 34.7604 26.2001ZM28.0001 21.7658C27.7484 20.9582 26.6524 20.9582 26.4007 21.7658L25.5986 24.3391H23.0029C22.1883 24.3391 21.8496 25.4257 22.5086 25.9248L24.6086 27.5153L23.8065 30.0886C23.5548 30.8962 24.4414 31.5678 25.1005 31.0687L27.2004 29.4783L29.3004 31.0687C29.9594 31.5678 30.8461 30.8962 30.5943 30.0886L29.7922 27.5153L31.8922 25.9248C32.5512 25.4257 32.2125 24.3391 31.3979 24.3391H28.8023L28.0001 21.7658Z" fill="white"/>
</svg>
