<svg width="44" height="44" viewBox="0 0 44 44" fill="none" xmlns="http://www.w3.org/2000/svg">
<circle cx="22" cy="21.8496" r="21.8496" fill="#B1CCFF"/>
<path d="M17.8376 17.838C17.8376 17.3783 18.2103 17.0056 18.67 17.0056H25.3289C25.6059 17.0056 25.8512 17.1409 26.0026 17.349C25.269 17.6368 24.6201 18.0931 24.1035 18.6703H18.67C18.2103 18.6703 17.8376 18.2977 17.8376 17.838ZM22.8318 21.9998H18.67C18.2103 21.9998 17.8376 22.3725 17.8376 22.8322C17.8376 23.2919 18.2103 23.6645 18.67 23.6645H23.116C22.932 23.1438 22.8318 22.5835 22.8318 21.9998ZM21.0132 31.9882H16.1729C15.7132 31.9882 15.3405 31.6155 15.3405 31.1558V14.5085C15.3405 14.0488 15.7132 13.6761 16.1729 13.6761H27.826C28.2857 13.6761 28.6584 14.0488 28.6584 14.5085V17.0747C29.2559 17.1749 29.8175 17.3813 30.3231 17.6737V14.5085C30.3231 13.1294 29.2051 12.0114 27.826 12.0114V11.179C27.826 10.7193 27.4533 10.3467 26.9936 10.3467C26.5339 10.3467 26.1613 10.7193 26.1613 11.179V12.0114H22.8318V11.179C22.8318 10.7193 22.4591 10.3467 21.9994 10.3467C21.5397 10.3467 21.1671 10.7193 21.1671 11.179V12.0114H17.8376V11.179C17.8376 10.7193 17.4649 10.3467 17.0052 10.3467C16.5455 10.3467 16.1729 10.7193 16.1729 11.179V12.0114C14.7938 12.0114 13.6758 13.1294 13.6758 14.5085V31.1558C13.6758 32.5349 14.7938 33.6529 16.1729 33.6529H22.1423C22.2079 33.6529 22.2733 33.6503 22.3382 33.6452C21.7994 33.177 21.3494 32.6156 21.0132 31.9882ZM24.0137 32.8158C22.7861 32.0684 21.9994 30.748 21.9994 29.2838C21.9994 28.165 22.8841 27.2464 24.0124 27.1492C24.0777 27.1436 24.1439 27.1407 24.2107 27.1407H31.4413C32.6625 27.1407 33.6526 28.1002 33.6526 29.2838C33.6526 31.1975 32.3087 32.8656 30.3931 33.3298L30.2555 33.3631C28.6604 33.7496 26.9916 33.7496 25.3965 33.3631L25.259 33.3298C24.809 33.2207 24.3906 33.0453 24.0137 32.8158ZM30.3231 24.2021C29.8894 24.6935 29.3128 25.0559 28.6584 25.2244C28.3923 25.2928 28.1134 25.3293 27.826 25.3293C26.5936 25.3293 25.5177 24.6597 24.942 23.6645C24.6587 23.1748 24.4965 22.6062 24.4965 21.9998C24.4965 21.9998 24.4965 21.9998 24.4965 21.9998C24.4965 20.161 25.9872 18.6703 27.826 18.6703C28.1134 18.6703 28.3923 18.7068 28.6584 18.7752C29.3128 18.9437 29.8894 19.3061 30.3231 19.7975C30.8411 20.3844 31.1555 21.1554 31.1555 21.9998C31.1555 22.8442 30.8411 23.6152 30.3231 24.2021ZM17.8376 27.8264C17.8376 27.3667 18.2103 26.994 18.67 26.994H19.5023C19.962 26.994 20.3347 27.3667 20.3347 27.8264C20.3347 28.2861 19.962 28.6587 19.5023 28.6587H18.67C18.2103 28.6587 17.8376 28.2861 17.8376 27.8264Z" fill="white"/>
</svg>
