<svg width="48" height="47" viewBox="0 0 48 47" fill="none" xmlns="http://www.w3.org/2000/svg">
<circle cx="24" cy="23.5" r="23.5" fill="#B1CCFF"/>
<path d="M36.5335 18.5239C36.5335 22.9738 32.9262 26.5811 28.4764 26.5811C24.0265 26.5811 20.4192 22.9738 20.4192 18.5239C20.4192 14.0741 24.0265 10.4668 28.4764 10.4668C32.9262 10.4668 36.5335 14.0741 36.5335 18.5239ZM32.6904 15.2052C32.3407 14.8556 31.7739 14.8556 31.4243 15.2052L26.6859 19.9436L25.5284 18.7861C25.1788 18.4365 24.612 18.4365 24.2624 18.7861C23.9128 19.1358 23.9128 19.7026 24.2624 20.0522L26.0529 21.8427C26.4025 22.1923 26.9693 22.1923 27.3189 21.8427L32.6904 16.4713C33.04 16.1216 33.04 15.5548 32.6904 15.2052ZM28.4764 28.3716C28.5809 28.3716 28.685 28.3699 28.7887 28.3667H31.1621C31.8553 28.3667 32.4565 27.9727 32.7541 27.3965C33.4695 27.0509 34.1367 26.6214 34.743 26.1206V26.5762C34.743 28.5539 33.1398 30.1572 31.1621 30.1572H27.5864V31.9667L30.2706 31.9667C30.7651 31.9667 31.1659 32.3675 31.1659 32.862C31.1659 33.3564 30.7651 33.7572 30.2707 33.7572L17.7442 33.7573C17.2498 33.7573 16.849 33.3565 16.849 32.8621C16.849 32.3676 17.2498 31.9668 17.7442 31.9668L20.4282 31.9668V30.1572H16.8383C14.8606 30.1572 13.2573 28.5539 13.2573 26.5762V15.8382C13.2573 13.8605 14.8606 12.2573 16.8383 12.2573H20.8797C20.4256 12.8071 20.03 13.4072 19.7025 14.0477H16.8383C15.8494 14.0477 15.0478 14.8494 15.0478 15.8382V26.5762C15.0478 27.5651 15.8494 28.3667 16.8383 28.3667H28.1641C28.2678 28.3699 28.3719 28.3716 28.4764 28.3716ZM25.7959 30.1572H22.2187V31.9668L25.7959 31.9668V30.1572Z" fill="white"/>
</svg>
