<svg width="48" height="48" viewBox="0 0 48 48" fill="none" xmlns="http://www.w3.org/2000/svg">
<circle cx="24" cy="23.625" r="23.625" fill="#B1CCFF"/>
<path d="M14.2798 33.72V14.28C14.2798 12.4906 15.7304 11.04 17.5198 11.04H30.4798C32.2692 11.04 33.7198 12.4906 33.7198 14.28V32.1C33.7198 32.9947 32.9945 33.72 32.0998 33.72H15.8998C15.8998 34.6147 16.6251 35.34 17.5198 35.34H32.9098C33.3571 35.34 33.7198 35.7027 33.7198 36.15C33.7198 36.5974 33.3571 36.96 32.9098 36.96H17.5198C15.7304 36.96 14.2798 35.5094 14.2798 33.72ZM32.0998 14.28C32.0998 13.3853 31.3745 12.66 30.4798 12.66H17.5198C16.6251 12.66 15.8998 13.3853 15.8998 14.28V32.1H32.0998V14.28ZM19.207 20.76H20.783C20.8552 19.5075 21.0937 18.3536 21.4616 17.4247C20.288 18.1448 19.4436 19.3494 19.207 20.76ZM17.5198 21.57C17.5198 17.9912 20.421 15.09 23.9998 15.09C27.5786 15.09 30.4798 17.9912 30.4798 21.57C30.4798 25.1488 27.5786 28.05 23.9998 28.05C20.421 28.05 17.5198 25.1488 17.5198 21.57ZM28.7926 20.76C28.5559 19.3494 27.7116 18.1448 26.538 17.4247C26.9058 18.3536 27.1443 19.5075 27.2166 20.76H28.7926ZM27.2166 22.38C27.1443 23.6326 26.9058 24.7865 26.538 25.7154C27.7116 24.9952 28.5559 23.7907 28.7926 22.38H27.2166ZM25.5936 20.76C25.5186 19.6144 25.2884 18.6144 24.9735 17.8798C24.7794 17.4268 24.569 17.112 24.3767 16.9221C24.1878 16.7357 24.0614 16.71 23.9998 16.71C23.9382 16.71 23.8118 16.7357 23.6229 16.9221C23.4305 17.112 23.2202 17.4268 23.026 17.8798C22.7112 18.6144 22.481 19.6144 22.406 20.76H25.5936ZM22.406 22.38C22.481 23.5257 22.7112 24.5256 23.026 25.2603C23.2202 25.7133 23.4305 26.0281 23.6229 26.2179C23.8118 26.4043 23.9382 26.43 23.9998 26.43C24.0614 26.43 24.1878 26.4043 24.3767 26.2179C24.569 26.0281 24.7794 25.7133 24.9735 25.2603C25.2884 24.5256 25.5186 23.5257 25.5936 22.38H22.406ZM20.783 22.38H19.207C19.4436 23.7907 20.288 24.9952 21.4616 25.7154C21.0937 24.7865 20.8552 23.6326 20.783 22.38Z" fill="white"/>
</svg>
