<svg width="46" height="46" viewBox="0 0 46 46" fill="none" xmlns="http://www.w3.org/2000/svg">
<circle cx="23" cy="22.8433" r="22.8433" fill="#B1CCFF"/>
<path d="M13.6025 13.6015C13.6025 12.442 14.2325 11.4295 15.1689 10.8879V32.3983C15.1689 33.2634 15.8702 33.9647 16.7353 33.9647H29.2665C30.1316 33.9647 30.8329 33.2634 30.8329 32.3983V13.6015C30.8329 12.7364 30.1316 12.0351 29.2665 12.0351H26.1337V10.4688H29.2665C30.9967 10.4688 32.3993 11.8713 32.3993 13.6015V32.3983C32.3993 34.1285 30.9967 35.5311 29.2665 35.5311H16.7353C15.0051 35.5311 13.6025 34.1285 13.6025 32.3983V13.6015ZM16.7353 10.4688V20.6503C16.7353 20.947 16.9029 21.2182 17.1683 21.3508C17.4336 21.4835 17.7511 21.4549 17.9884 21.2769L20.6513 19.2797L23.3142 21.2769C23.5515 21.4549 23.869 21.4835 24.1344 21.3508C24.3997 21.2182 24.5673 20.947 24.5673 20.6503V10.4688H16.7353ZM18.3017 19.0839V12.0351H23.0009V19.0839L21.1212 17.6742C20.8428 17.4653 20.4599 17.4653 20.1814 17.6742L18.3017 19.0839Z" fill="white"/>
</svg>
