<svg width="74" height="75" viewBox="0 0 74 75" fill="none" xmlns="http://www.w3.org/2000/svg">
<path opacity="0.1" d="M71.3766 37.5771C71.3766 56.5736 55.9769 71.9733 36.9805 71.9733C17.984 71.9733 2.58431 56.5736 2.58431 37.5771C2.58431 18.5807 17.984 3.18099 36.9805 3.18099C55.9769 3.18099 71.3766 18.5807 71.3766 37.5771Z" stroke="white" stroke-width="4.91374"/>
<path fill-rule="evenodd" clip-rule="evenodd" d="M48.0626 29.1305C49.1848 29.4275 50.0686 30.2981 50.3698 31.4013C50.9289 33.4149 50.9027 37.6131 50.9027 37.6131C50.9027 37.6131 50.8988 41.7882 50.3567 43.8005C50.0516 44.9025 49.1638 45.7717 48.043 46.0674C45.9924 46.5946 37.789 46.5856 37.789 46.5856C37.789 46.5856 29.6079 46.5766 27.5364 46.0237C26.4129 45.7267 25.5291 44.8562 25.2279 43.7542C24.6911 41.7612 24.6963 37.5643 24.6963 37.5643C24.6963 37.5643 24.7015 33.3879 25.2423 31.3743C25.5461 30.2723 26.4548 29.3825 27.5547 29.0881C29.6066 28.5596 37.8087 28.5686 37.8087 28.5686C37.8087 28.5686 46.0121 28.5776 48.0626 29.1305ZM35.1912 33.7181L35.1846 41.433L42.0092 37.582L35.1912 33.7181Z" fill="#F5F8FA"/>
</svg>
